<svg width="186" height="197" viewBox="0 0 186 197" fill="none" xmlns="http://www.w3.org/2000/svg">
<g id="Group 63">
<path id="Vector" d="M125.209 68.7841C125.449 52.6779 105.577 42.4453 89.6028 40.3179C73.6288 38.1904 57.4625 43.4389 43.4077 51.3117C34.0164 56.5723 24.6893 63.8802 22.069 74.3211C19.6971 83.7765 23.319 94.1173 20.218 103.36C17.742 110.756 11.4037 116.117 7.31701 122.752C4.38192 127.509 2.61998 132.896 2.17655 138.468C1.73312 144.04 2.62091 149.638 4.76667 154.799C6.91244 159.961 10.2547 164.538 14.5177 168.154C18.7806 171.769 23.8422 174.319 29.2847 175.594C39.1848 177.914 49.7179 175.89 59.602 178.29C70.8202 181.007 79.9311 189.084 90.7206 193.114C96.9027 195.426 103.541 196.367 110.136 196.492C130.822 196.789 150.861 189.278 166.255 175.458C171.464 170.746 176.087 165.293 179.164 158.983C181.781 153.618 183.223 147.765 184.293 141.891C185.647 134.443 186.432 126.746 184.902 119.334C182.474 107.559 173.908 97.2264 162.786 92.6549C154.997 89.4497 146.331 88.993 138.43 86.0842C130.529 83.1755 125.088 76.8012 125.209 68.7841Z" fill="#EBEBEB"/>
<path id="Vector_2" d="M44.352 52.6013C41.6941 50.1786 39.6417 47.166 38.3599 43.8058C37.0782 40.4455 36.6028 36.8313 36.9721 33.2539C41.8881 34.5079 47.1606 35.9863 50.3057 39.9608C50.6049 40.2722 50.7838 40.6797 50.8105 41.1107C50.7648 41.4623 50.6266 41.7955 50.4099 42.0762C48.2704 45.3055 46.5156 48.7791 44.352 52.6013Z" fill="white"/>
<path id="Vector_3" d="M88.4131 37.8658C92.179 33.6918 97.2934 30.9757 102.861 30.1934C103.328 33.4344 103.007 36.7405 101.925 39.831C100.842 42.9216 99.0304 45.7054 96.6425 47.9462C95.0719 43.8476 91.6744 40.7626 88.4131 37.8658Z" fill="white"/>
<path id="Vector_4" d="M79.8346 39.6924C75.2031 46.1028 66.8375 48.5468 61.0881 53.9596C57.8549 57.0005 55.5391 60.9028 53.7522 64.9654C49.6535 74.2846 48.2513 85.3266 52.5502 94.5576C53.3011 96.2834 54.3539 97.8613 55.6593 99.2171C59.5296 103.055 65.5073 103.588 70.9562 103.684C76.3449 103.777 81.8058 103.648 86.9822 102.186C88.4125 101.785 89.8669 101.24 90.9046 100.183C91.79 99.2732 92.2868 98.0633 92.7276 96.8733C96.1571 87.6263 97.4152 76.8407 92.6835 68.1947C91.3293 65.7187 90.3838 62.6216 88.7932 60.2858C84.3339 53.7232 80.6679 46.9562 79.8346 39.6924Z" fill="white"/>
<path id="Vector_5" d="M74.2245 22.8214C77.5881 17.7594 79.4521 11.8495 79.6013 5.77366C79.6013 4.94432 79.5732 4.03484 79.0203 3.41783L74.0883 13.0575C71.5683 8.51591 67.667 4.89524 62.9502 2.7207C66.7342 8.61424 69.0467 15.3307 69.6931 22.3045C69.6891 22.3992 69.704 22.4936 69.737 22.5824C69.77 22.6712 69.8205 22.7524 69.8855 22.8214C70.0219 22.9056 70.1834 22.9396 70.3422 22.9175C72.0089 22.8815 73.6756 22.8414 74.2245 22.8214Z" fill="#F6DFA8"/>
<path id="Vector_6" d="M68.941 30.8342C62.9313 30.4696 57.4624 34.42 53.4719 38.9394C43.3755 50.37 39.3449 65.9032 37.2976 81.0078C36.2479 88.7564 35.6349 96.6572 36.897 104.37C38.7039 100.083 40.9996 96.0001 43.708 91.5489C43.6399 95.932 43.5758 100.363 44.6055 104.634C45.6352 108.905 47.8988 113.048 51.8933 114.366C53.4143 109.445 56.2402 105.028 60.0706 101.585C55.8918 101.116 52.927 97.2101 51.4686 93.2677C47.8107 83.3516 50.6353 72.1694 55.2027 62.6339C56.7412 59.4287 58.5081 56.2515 61.0041 53.7074C66.6934 47.91 75.656 45.8306 80.612 38.8512C79.2939 42.9699 80.4638 47.5133 82.459 51.3515C84.4543 55.1898 87.2668 58.5633 89.4584 62.2653C92.5943 67.6096 94.5243 73.5748 95.1133 79.7432C95.7022 85.9116 94.9359 92.1341 92.8679 97.9753C96.7983 102.547 98.8777 108.657 99.0941 114.298C101.618 110.66 102.916 106.313 103.834 101.978C106.891 87.3794 106.029 72.2315 101.334 58.0745C99.2343 51.7762 96.3256 45.6543 91.8944 40.6942C87.4632 35.7342 81.3652 32.0762 74.7505 31.5033C72.7072 31.311 70.6638 30.9384 68.941 30.8342Z" fill="#F6DFA8"/>
<path id="Vector_7" d="M164.596 167.08C163.379 167.929 161.956 168.436 160.477 168.549C158.997 168.662 157.514 168.376 156.182 167.721C153.618 166.423 151.583 163.714 148.71 163.714C146.671 163.69 144.916 165.057 143.321 166.331C142.46 167.016 141.527 167.725 140.429 167.829C138.141 168.045 136.422 165.638 134.147 165.241C130.441 164.592 128.085 169.247 124.567 170.578C122.115 171.503 119.31 170.678 117.099 169.263C114.887 167.849 113.092 165.894 111.037 164.263C110.734 163.966 110.335 163.786 109.911 163.754C109.314 163.787 108.918 164.351 108.569 164.836C105.612 168.987 100.075 170.742 95.0069 170.201C89.9387 169.66 85.2831 167.14 81.1564 164.151C80.8738 163.906 80.5353 163.734 80.1708 163.65C79.4496 163.55 78.8326 164.135 78.3158 164.652C74.0602 168.898 68.4619 171.533 62.4781 172.108L57.8706 165.137C57.0774 167.048 55.7298 168.678 54.0017 169.816C52.2735 170.955 50.244 171.549 48.1748 171.523C49.9096 167.869 50.5787 163.446 50.9794 159.175C51.6737 151.739 51.7273 144.256 51.1396 136.811C50.739 131.462 49.9657 126.081 50.6107 120.757C51.4537 113.979 54.5065 107.668 59.2969 102.799C61.0317 105.604 65.0703 105.516 68.3436 105.083L87.5989 102.535C87.6202 101.63 87.6389 100.723 87.655 99.8146C96.6336 98.4083 105.64 97.01 114.719 96.6614C121.286 96.417 127.94 96.7295 134.351 95.2311C140.761 93.7327 147.052 90.0226 149.892 83.9768C152.705 88.8472 153.77 94.5327 152.909 100.091C152.738 100.792 152.715 101.52 152.841 102.231C153.081 102.902 153.452 103.521 153.931 104.049C158.286 109.783 158.498 117.547 158.53 124.751C158.554 130.076 158.578 135.396 158.747 140.717C159.043 149.896 159.908 159.516 164.596 167.08Z" fill="#F6DFA8"/>
<path id="Vector_8" d="M69.0455 24.2354C67.499 21.7416 65.7431 19.384 63.7969 17.1879C62.3826 15.5853 60.8361 14.0628 58.9571 13.1052C58.0556 12.6445 57.0139 12.304 56.0524 12.6245C54.5098 13.1133 53.8167 14.9603 53.5443 16.631C53.1436 19.1631 53.1997 21.7513 53.2758 24.3195C53.3399 26.467 53.4081 28.6465 54.001 30.7059C54.594 32.7652 55.7759 34.7124 57.7591 35.6539C60.5825 33.4892 63.8259 31.9364 67.2826 31.0945C67.4273 31.0485 67.5827 31.0485 67.7273 31.0945C67.8867 31.1856 68.012 31.3263 68.0839 31.4952C68.8492 32.8213 70.5359 32.4848 72.0183 32.5769C73.5007 32.6691 74.7227 33.1258 75.3958 31.7516C78.7576 32.6855 82.0084 33.9805 85.0916 35.6139C86.2729 34.0349 87.3438 32.3762 88.2968 30.6498C89.6149 28.2459 90.7327 25.6136 90.6045 22.8651C90.4678 21.334 90.138 19.8262 89.6229 18.3778C89.0901 16.651 88.5291 14.8761 87.4714 13.6782C86.1853 13.582 84.9954 14.3513 83.9537 15.1486C80.464 17.8089 77.4752 21.1023 74.5063 24.3636C73.1361 22.7169 70.3556 22.7049 69.0455 24.2354Z" fill="#EDB24E"/>
<path id="Vector_9" d="M48.0626 114.55C47.9619 114.551 47.8622 114.53 47.7707 114.487C47.6793 114.445 47.5983 114.383 47.5338 114.306C43.0264 109.053 42.4976 101.705 42.6458 94.3933C40.3209 97.7074 38.6759 101.449 37.806 105.403C37.774 105.548 37.6966 105.679 37.5849 105.778C37.4732 105.876 37.333 105.935 37.185 105.948C37.0369 105.962 36.8882 105.928 36.7611 105.851C36.634 105.774 36.5353 105.657 36.4798 105.519C35.5823 103.32 35.4702 100.936 35.4341 98.6763C35.2234 84.151 37.7361 69.7149 42.8421 56.1151C45.218 49.8289 47.686 45.0891 50.6148 41.2028C54.3368 36.2628 58.9123 32.6609 63.8363 30.7859C64.0095 30.72 64.2017 30.7256 64.3708 30.8015C64.5399 30.8774 64.6718 31.0173 64.7377 31.1905C64.8036 31.3637 64.798 31.556 64.7221 31.7251C64.6462 31.8941 64.5063 32.0261 64.3331 32.092C59.6414 33.8749 55.2783 37.3005 51.7166 42.0442C48.8719 45.8223 46.46 50.4579 44.1362 56.6119C39.0887 70.054 36.6058 84.3232 36.8163 98.6802C36.812 99.9915 36.9058 101.301 37.0968 102.599C38.3066 98.6687 40.2612 95.0084 42.8542 91.8171C42.9463 91.7036 43.0718 91.6218 43.2129 91.5835C43.354 91.5452 43.5036 91.5523 43.6405 91.6037C43.7774 91.6551 43.8947 91.7482 43.9757 91.8699C44.0568 91.9916 44.0975 92.1357 44.0922 92.2818C43.8117 100.343 43.9479 108.023 48.5795 113.424C48.6659 113.525 48.7216 113.649 48.7399 113.781C48.7582 113.913 48.7383 114.047 48.6827 114.168C48.6271 114.289 48.538 114.392 48.426 114.464C48.314 114.536 48.1837 114.574 48.0506 114.574L48.0626 114.55Z" fill="#333333"/>
<path id="Vector_10" d="M54.0806 98.4122C53.9646 98.412 53.8503 98.383 53.7482 98.3277C53.6461 98.2725 53.5594 98.1928 53.4957 98.0957C50.5188 93.5804 49.0084 87.7028 49.2448 81.5528C49.4451 76.3444 50.7993 70.9396 53.3755 64.9779C56.3043 58.2109 59.7859 53.3189 64.0729 50.0256C66.1248 48.5296 68.2864 47.1904 70.5394 46.0191C73.993 44.1039 77.2543 42.297 79.6382 39.4163C79.6966 39.3456 79.7684 39.287 79.8494 39.244C79.9304 39.2009 80.0191 39.1743 80.1105 39.1655C80.2018 39.1568 80.294 39.1661 80.3817 39.193C80.4695 39.2199 80.551 39.2638 80.6218 39.3222C80.6926 39.3806 80.7511 39.4523 80.7942 39.5334C80.8372 39.6144 80.8638 39.7031 80.8726 39.7945C80.8813 39.8858 80.872 39.978 80.8451 40.0657C80.8182 40.1534 80.7743 40.235 80.7159 40.3058C78.1598 43.3908 74.6301 45.346 71.2125 47.237C69.0226 48.3791 66.9213 49.6835 64.9263 51.1394C60.8476 54.2845 57.4862 58.9961 54.6576 65.5388C52.1455 71.3402 50.8354 76.6008 50.6511 81.6169C50.4267 87.4784 51.853 93.0595 54.6576 97.3385C54.7595 97.4926 54.796 97.6809 54.7592 97.8619C54.7224 98.0429 54.6153 98.202 54.4613 98.304C54.3471 98.3751 54.2152 98.4126 54.0806 98.4122Z" fill="#333333"/>
<path id="Vector_11" d="M91.8296 100.283C91.7227 100.282 91.6174 100.257 91.5212 100.211C91.4391 100.17 91.3658 100.114 91.3056 100.045C91.2454 99.9758 91.1994 99.8957 91.1704 99.8089C91.1413 99.7221 91.1298 99.6304 91.1363 99.5391C91.1429 99.4478 91.1675 99.3588 91.2086 99.277C97.0942 87.3817 96.1447 72.5616 88.8047 61.5196C88.0555 60.3898 87.2021 59.2439 86.4008 58.1341C83.2838 53.8992 80.0625 49.5161 80.2789 44.2355C80.2766 44.1402 80.2939 44.0455 80.3297 43.9571C80.3655 43.8688 80.419 43.7887 80.4869 43.7219C80.5549 43.655 80.6358 43.6028 80.7247 43.5685C80.8136 43.5342 80.9087 43.5185 81.0039 43.5223C81.0992 43.5261 81.1926 43.5495 81.2785 43.5908C81.3643 43.6322 81.4408 43.6908 81.5031 43.7629C81.5655 43.835 81.6124 43.9191 81.6409 44.0101C81.6695 44.101 81.6791 44.1968 81.6691 44.2916C81.4768 49.0994 84.5498 53.2662 87.5226 57.3088C88.348 58.4306 89.2014 59.5925 89.9706 60.7464C97.583 72.197 98.5806 87.5619 92.4787 99.894C92.4186 100.014 92.3257 100.114 92.2107 100.183C92.0958 100.252 91.9636 100.286 91.8296 100.283Z" fill="#333333"/>
<path id="Vector_12" d="M98.3997 116.63C98.3063 116.63 98.2138 116.612 98.1272 116.577C97.9901 116.519 97.8752 116.418 97.7988 116.29C97.7225 116.162 97.6888 116.013 97.7025 115.864C98.0844 111.93 97.6367 107.96 96.3884 104.209C96.3563 104.122 96.3422 104.029 96.3467 103.936C96.3513 103.842 96.3745 103.751 96.415 103.667C96.4555 103.583 96.5124 103.508 96.5824 103.446C96.6524 103.385 96.7341 103.338 96.8225 103.308C96.911 103.279 97.0045 103.267 97.0975 103.275C97.1905 103.282 97.2811 103.308 97.3639 103.351C97.4467 103.394 97.52 103.453 97.5796 103.525C97.6391 103.596 97.6837 103.679 97.7106 103.769C98.7669 106.937 99.2802 110.261 99.229 113.601C101.409 110.143 102.406 106.06 103.087 102.41C105.671 88.5229 104.946 74.2218 100.972 60.6666C98.9686 53.9156 96.4765 48.5149 93.3154 44.1518C90.631 40.4457 86.0075 35.5378 79.2445 33.206C79.158 33.176 79.0782 33.1292 79.0097 33.0684C78.9412 33.0076 78.8854 32.9338 78.8454 32.8514C78.8054 32.769 78.782 32.6796 78.7766 32.5881C78.7712 32.4967 78.7838 32.4051 78.8138 32.3185C78.8438 32.232 78.8906 32.1522 78.9514 32.0837C79.0122 32.0152 79.086 31.9594 79.1684 31.9194C79.2508 31.8794 79.3402 31.856 79.4317 31.8506C79.5231 31.8452 79.6147 31.8578 79.7013 31.8878C85.3104 33.827 90.4227 37.7854 94.4452 43.3304C97.7025 47.8257 100.275 53.3667 102.31 60.274C106.349 74.0395 107.086 88.5632 104.462 102.667C103.66 106.922 102.318 112.323 98.9325 116.381C98.8673 116.459 98.7858 116.522 98.6938 116.565C98.6017 116.608 98.5013 116.63 98.3997 116.63Z" fill="#333333"/>
<path id="Vector_13" d="M41.697 50.8189C41.5924 50.8194 41.4891 50.7962 41.3948 50.7511C41.3004 50.706 41.2174 50.6402 41.1521 50.5585C39.2428 48.1307 37.8542 45.3355 37.0732 42.3472C36.2922 39.3589 36.1355 36.2418 36.6128 33.1902C36.6431 33.0176 36.7367 32.8625 36.8752 32.7551C37.0137 32.6477 37.1873 32.5957 37.362 32.6093C41.9356 33.0273 46.1834 35.1548 49.2573 38.567C49.3228 38.6344 49.3739 38.7142 49.4078 38.8019C49.4416 38.8895 49.4573 38.9831 49.454 39.0769C49.4508 39.1708 49.4286 39.2631 49.3888 39.3481C49.349 39.4332 49.2924 39.5094 49.2225 39.5721C49.1525 39.6347 49.0706 39.6826 48.9817 39.7128C48.8927 39.7431 48.7986 39.755 48.7049 39.7479C48.6113 39.7409 48.52 39.715 48.4366 39.6718C48.3532 39.6286 48.2794 39.5689 48.2196 39.4965C45.535 36.5185 41.8776 34.5939 37.9029 34.0677C37.5604 36.8302 37.7682 39.6331 38.5143 42.3149C39.2604 44.9968 40.53 47.5043 42.2499 49.6931C42.3071 49.7645 42.3495 49.8465 42.3749 49.9344C42.4002 50.0223 42.4078 50.1143 42.3974 50.2052C42.387 50.2961 42.3587 50.384 42.3141 50.4639C42.2695 50.5438 42.2096 50.614 42.1378 50.6706C42.0128 50.7702 41.8568 50.8227 41.697 50.8189Z" fill="#333333"/>
<path id="Vector_14" d="M99.4139 45.1895C99.2564 45.1903 99.1035 45.1365 98.9812 45.0373C98.9093 44.9807 98.8494 44.9104 98.8049 44.8305C98.7603 44.7506 98.732 44.6627 98.7215 44.5718C98.7111 44.481 98.7188 44.3889 98.7441 44.301C98.7694 44.2131 98.8119 44.1311 98.869 44.0597C101.754 40.3992 103.099 35.7586 102.619 31.1227V31.0906C97.4347 31.964 93.5323 33.783 91.0002 36.4994C90.8743 36.6349 90.6997 36.7148 90.5149 36.7216C90.3301 36.7283 90.1501 36.6614 90.0146 36.5355C89.8791 36.4095 89.7992 36.235 89.7925 36.0501C89.7857 35.8653 89.8526 35.6853 89.9786 35.5499C92.723 32.593 96.9178 30.6258 102.439 29.7084C102.731 29.6404 103.037 29.6685 103.312 29.7885C103.52 29.9132 103.693 30.0892 103.814 30.2996C103.934 30.51 103.999 30.7479 104.001 30.9904C104.515 35.9897 103.064 40.9928 99.9548 44.9411C99.8882 45.0195 99.8053 45.0823 99.7119 45.1252C99.6184 45.1681 99.5167 45.1901 99.4139 45.1895Z" fill="#333333"/>
<path id="Vector_15" d="M72.5712 33.1859C72.1512 33.1812 71.7321 33.1464 71.3172 33.0817C70.2795 32.9255 68.797 32.5809 67.9396 31.419C67.0822 30.2571 67.1864 28.8709 67.3026 27.8853C67.5029 26.1825 67.9437 24.9445 68.6969 23.9869C69.7225 22.6768 71.3612 22.0478 72.7715 22.4324C73.5948 22.6452 74.3555 23.0514 74.9903 23.6172C75.6251 24.183 76.1157 24.8922 76.4214 25.6857C76.9659 27.2493 76.926 28.957 76.3093 30.4935C76.0183 31.36 75.4564 32.1101 74.7066 32.633C74.0629 33.019 73.3214 33.211 72.5712 33.1859ZM71.9261 23.7145C71.5092 23.7345 71.1019 23.8466 70.7334 24.0426C70.3649 24.2386 70.0443 24.5138 69.7947 24.8483C69.2057 25.5935 68.8572 26.6112 68.6889 28.0535C68.6007 28.8027 68.5406 29.8885 69.0615 30.5937C69.4822 31.1626 70.2634 31.5152 71.5255 31.7075C72.2987 31.8237 73.2763 31.8998 73.9655 31.4591C74.4583 31.092 74.8228 30.5789 75.0071 29.9927C75.5009 28.7743 75.5394 27.4188 75.1153 26.1745C74.888 25.587 74.5236 25.0624 74.0525 24.6443C73.5814 24.2261 73.0172 23.9266 72.4069 23.7706C72.2501 23.7295 72.0882 23.7107 71.9261 23.7145Z" fill="#333333"/>
<path id="Vector_16" d="M56.7323 35.2251C56.5887 35.2249 56.4487 35.1801 56.3316 35.0969C54.6834 33.8307 53.5275 32.0303 53.0623 30.0046C52.6229 28.097 52.441 26.1391 52.5214 24.1832C52.5455 22.0397 52.6336 19.8681 52.7819 17.7247C52.882 16.3144 53.0183 14.9441 53.5832 13.6701C53.7298 13.2672 53.9567 12.8983 54.2501 12.5856C54.5434 12.273 54.8972 12.0231 55.2899 11.8511C55.7668 11.6846 56.2776 11.6392 56.7764 11.7189C59.1803 11.9994 61.0914 13.642 62.6499 15.2086C65.2131 17.7975 67.4677 20.6747 69.3688 23.7825C69.4655 23.9419 69.4949 24.1332 69.4506 24.3142C69.4063 24.4953 69.2918 24.6514 69.1324 24.7481C68.9731 24.8448 68.7818 24.8742 68.6007 24.8299C68.4196 24.7855 68.2636 24.6711 68.1669 24.5117C66.3261 21.4891 64.1413 18.6899 61.6563 16.1701C60.27 14.7719 58.5873 13.3135 56.6121 13.0851C56.334 13.0383 56.0488 13.0562 55.7787 13.1372C55.3475 13.3685 55.0187 13.753 54.8572 14.2149C54.424 15.3686 54.1935 16.5886 54.1761 17.8208C54.0279 19.9362 53.9397 22.0837 53.9197 24.1992C53.8997 25.9861 53.9197 27.8812 54.3885 29.6681C54.7783 31.3744 55.7483 32.8924 57.1329 33.963C57.2518 34.049 57.3406 34.1702 57.3865 34.3095C57.4325 34.4489 57.4334 34.5991 57.389 34.739C57.3446 34.8788 57.2572 35.001 57.1393 35.0883C57.0214 35.1756 56.879 35.2235 56.7323 35.2251Z" fill="#333333"/>
<path id="Vector_17" d="M85.0908 34.9408C84.951 34.942 84.814 34.9015 84.6975 34.8242C84.5809 34.747 84.4901 34.6367 84.4367 34.5075C84.3833 34.3783 84.3698 34.2361 84.3978 34.0991C84.4258 33.9622 84.4941 33.8367 84.594 33.7389C89.4459 28.8549 90.6038 20.6256 87.2784 14.5958C87.2273 14.4874 87.1582 14.3885 87.074 14.3033C87.074 14.3033 86.9739 14.2472 86.6734 14.3033C85.6117 14.4555 84.6701 15.1447 83.7326 15.9059C80.6007 18.4064 77.6721 21.1514 74.9744 24.1152C74.9128 24.1831 74.8385 24.2382 74.7556 24.2773C74.6728 24.3165 74.583 24.3389 74.4915 24.3434C74.4 24.3479 74.3085 24.3343 74.2222 24.3034C74.136 24.2725 74.0566 24.2249 73.9888 24.1633C73.9209 24.1018 73.8658 24.0274 73.8267 23.9446C73.7875 23.8617 73.7651 23.772 73.7606 23.6805C73.7561 23.5889 73.7697 23.4974 73.8006 23.4112C73.8315 23.3249 73.8791 23.2456 73.9407 23.1777C76.6882 20.158 79.6717 17.362 82.8632 14.8161C83.9209 13.9707 85.0708 13.1294 86.469 12.933C86.9275 12.8401 87.4042 12.92 87.8072 13.1574C88.0943 13.3627 88.3234 13.6387 88.4723 13.9587C92.0782 20.5054 90.8281 29.4479 85.5556 34.7565C85.429 34.8736 85.2633 34.9393 85.0908 34.9408Z" fill="#333333"/>
<path id="Vector_18" d="M69.9545 23.7826C69.7696 23.7784 69.5937 23.7017 69.4648 23.5691C69.3359 23.4364 69.2643 23.2585 69.2654 23.0735C69.3776 15.5693 65.2589 8.34956 61.9134 2.54813C61.8377 2.42504 61.8031 2.28106 61.8147 2.13701C61.8262 1.99296 61.8832 1.85632 61.9776 1.74682C62.0658 1.63776 62.1848 1.5577 62.3191 1.51698C62.4534 1.47627 62.5968 1.47677 62.7308 1.51845C65.2188 2.34679 67.4917 3.71748 69.3854 5.53144C71.279 7.34541 72.7461 9.55736 73.6806 12.0075C75.4075 9.02042 76.8431 5.87417 77.9675 2.61222C78.0137 2.47718 78.1005 2.35971 78.2159 2.27581C78.3314 2.19191 78.4699 2.14569 78.6126 2.14347C78.7564 2.1367 78.8987 2.17625 79.0184 2.2563C79.1381 2.33634 79.229 2.45266 79.2777 2.58818C80.019 4.5296 80.334 6.60778 80.2013 8.68168C80.0685 10.7556 79.4912 12.7767 78.5084 14.6077C78.4647 14.6882 78.4056 14.7593 78.3345 14.817C78.2633 14.8747 78.1815 14.9177 78.0937 14.9438C78.0059 14.9698 77.9139 14.9783 77.8228 14.9688C77.7317 14.9592 77.6434 14.9319 77.5629 14.8882C77.4824 14.8445 77.4113 14.7854 77.3536 14.7143C77.2959 14.6431 77.2529 14.5613 77.2268 14.4735C77.2008 14.3857 77.1923 14.2936 77.2018 14.2025C77.2114 14.1115 77.2387 14.0232 77.2824 13.9427C78.7411 11.2247 79.1924 8.07864 78.5565 5.06022C77.3398 8.19868 75.8378 11.2189 74.0692 14.0829C73.9975 14.1985 73.8934 14.2906 73.7699 14.3479C73.6464 14.4051 73.5089 14.4249 73.3743 14.4049C73.2397 14.3849 73.1139 14.3258 73.0124 14.2352C72.9109 14.1445 72.8381 14.0261 72.8031 13.8946C72.1737 11.652 71.0704 9.57057 69.5678 7.79081C68.0652 6.01104 66.1983 4.57438 64.093 3.5778C67.2982 9.20695 70.7558 15.9539 70.6516 23.0975C70.6475 23.28 70.5723 23.4537 70.4421 23.5816C70.312 23.7095 70.137 23.7817 69.9545 23.7826Z" fill="#333333"/>
<path id="Vector_19" d="M47.9865 172.456C47.862 172.456 47.7398 172.423 47.6324 172.36C47.5251 172.297 47.4365 172.207 47.376 172.098C47.3155 171.989 47.2852 171.866 47.2883 171.742C47.2914 171.617 47.3277 171.496 47.3935 171.39C50.2341 166.859 51.6684 158.994 51.3199 149.811C51.1957 146.478 50.8591 143.088 50.5186 139.795C50.0498 135.067 49.565 130.179 49.7173 125.332C49.9016 118.456 51.5523 108.905 58.3673 102.542C58.5023 102.416 58.6819 102.348 58.8668 102.354C59.0516 102.36 59.2265 102.44 59.3529 102.575C59.4794 102.71 59.547 102.889 59.541 103.074C59.535 103.259 59.4558 103.434 59.3209 103.56C52.8584 109.61 51.2878 118.761 51.1115 125.372C50.9833 130.131 51.4641 134.987 51.9128 139.659C52.2414 142.956 52.5779 146.366 52.7141 149.743C53.0427 158.405 51.8047 165.974 49.3006 170.842C50.7902 170.504 52.1784 169.817 53.3512 168.838C54.3265 167.966 55.2135 167 55.9995 165.954C56.2038 165.697 56.4001 165.445 56.6165 165.192C56.7279 165.01 56.8811 164.856 57.0634 164.745C57.2457 164.633 57.452 164.566 57.6652 164.55C57.8784 164.533 58.0925 164.568 58.2898 164.65C58.4871 164.733 58.662 164.861 58.8 165.024C60.6397 166.659 62.2191 168.566 63.4836 170.677C68.6949 170.272 73.5743 167.961 77.1899 164.187C77.3174 164.053 77.4929 163.975 77.6778 163.971C77.8626 163.966 78.0417 164.035 78.1755 164.163C78.3094 164.29 78.3872 164.466 78.3917 164.65C78.3962 164.835 78.3271 165.014 78.1996 165.148C74.2417 169.29 68.8618 171.778 63.1431 172.112C63.0157 172.12 62.8886 172.092 62.776 172.032C62.6635 171.972 62.57 171.881 62.5061 171.771C61.2775 169.645 59.7181 167.729 57.8866 166.094C57.8511 166.061 57.8136 166.03 57.7744 166.002L57.6943 166.094C57.4899 166.342 57.2936 166.595 57.0853 166.847C56.2414 167.964 55.29 168.996 54.2446 169.928C52.486 171.39 50.3184 172.273 48.0385 172.456H47.9865Z" fill="#333333"/>
<path id="Vector_20" d="M123.73 171.475C120.597 171.475 117.007 169.011 114.171 167.067L113.225 166.414C113.045 166.294 112.865 166.166 112.684 166.042C112.071 165.569 111.397 165.181 110.681 164.888C110.02 164.655 109.042 164.583 108.453 165.148C108.216 165.411 108.02 165.708 107.872 166.03C107.8 166.162 107.732 166.29 107.66 166.43C106.526 168.398 104.379 169.844 101.766 170.397C99.3025 170.918 96.7583 170.605 94.8152 170.273C90.0594 169.471 88.1403 168.914 83.7252 166.595C83.5615 166.509 83.4388 166.361 83.3839 166.184C83.3291 166.008 83.3466 165.817 83.4327 165.653C83.5188 165.489 83.6663 165.367 83.8429 165.312C84.0194 165.257 84.2106 165.275 84.3742 165.361C88.6492 167.604 90.384 168.105 95.0516 168.898C96.8705 169.207 99.2424 169.503 101.462 169.031C103.682 168.558 105.501 167.36 106.434 165.733C106.502 165.621 106.562 165.505 106.626 165.389C106.84 164.936 107.125 164.52 107.472 164.159C108.333 163.329 109.772 163.105 111.134 163.59C111.962 163.926 112.741 164.372 113.449 164.916L113.97 165.276C114.279 165.481 114.595 165.701 114.924 165.926C118.47 168.358 123.338 171.691 126.118 169.171C126.659 168.653 127.163 168.099 127.629 167.512C128.738 166.174 129.884 164.792 131.691 164.411C133.498 164.03 135.097 164.812 136.647 165.613C137.386 166.012 138.16 166.344 138.959 166.603C140.502 167.034 142.154 166.84 143.554 166.062C144.147 165.705 144.711 165.304 145.241 164.86C146.223 164.059 147.244 163.257 148.543 162.957C150.301 162.556 152.22 163.081 154.424 164.607C154.797 164.868 155.165 165.144 155.538 165.409C156.7 166.274 157.798 167.087 159.076 167.492C159.894 167.74 160.756 167.811 161.603 167.7C162.451 167.589 163.265 167.298 163.992 166.847C157.842 158.682 157.83 136.598 157.894 132.159C157.894 131.449 157.914 130.74 157.93 130.027C158.082 121.441 158.238 112.567 154.015 105.323C153.911 105.139 153.803 104.958 153.695 104.778C153.006 103.632 152.297 102.446 152.168 101.036C152.127 100.229 152.197 99.4201 152.377 98.6321L152.453 98.2035C153.188 93.7665 152.414 89.2111 150.253 85.2664C147.761 89.4052 145.045 92.3019 141.952 94.0808C137.144 96.8853 131.419 97.0616 125.525 97.0015L124.071 96.9815C119.335 96.9294 114.435 96.8653 109.703 97.5384C109.612 97.5537 109.518 97.5504 109.427 97.5287C109.337 97.5069 109.252 97.4672 109.177 97.4119C109.102 97.3566 109.039 97.2867 108.992 97.2066C108.945 97.1265 108.914 97.0376 108.902 96.9454C108.888 96.8538 108.892 96.7603 108.914 96.6703C108.936 96.5803 108.976 96.4955 109.031 96.421C109.087 96.3465 109.156 96.2837 109.235 96.2361C109.315 96.1886 109.403 96.1573 109.495 96.1441C114.335 95.459 119.283 95.5191 124.075 95.5752H125.529C131.226 95.6353 136.719 95.471 141.243 92.8467C144.36 91.0318 147.104 87.9748 149.632 83.4995C149.691 83.3947 149.777 83.307 149.88 83.2452C149.983 83.1834 150.101 83.1495 150.221 83.147C150.342 83.1469 150.46 83.1765 150.566 83.2331C150.673 83.2897 150.763 83.3716 150.83 83.4715C153.616 87.9141 154.679 93.2229 153.819 98.3958L153.743 98.8365C153.589 99.5006 153.524 100.182 153.551 100.864C153.647 101.958 154.248 102.959 154.881 104.017C154.993 104.201 155.105 104.39 155.213 104.578C159.621 112.158 159.472 121.233 159.316 130.007C159.316 130.716 159.288 131.429 159.28 132.135C159.216 136.598 159.22 159.235 165.518 166.482C165.579 166.553 165.626 166.635 165.655 166.724C165.684 166.812 165.695 166.906 165.687 166.999C165.679 167.092 165.653 167.183 165.609 167.265C165.566 167.348 165.506 167.421 165.434 167.48C164.494 168.241 163.38 168.758 162.191 168.985C161.003 169.211 159.777 169.14 158.623 168.778C157.129 168.301 155.882 167.38 154.676 166.486C154.32 166.218 153.963 165.954 153.599 165.685C151.768 164.415 150.169 163.93 148.839 164.247C147.837 164.483 146.984 165.164 146.083 165.881C145.495 166.376 144.87 166.824 144.211 167.22C143.357 167.698 142.417 168.003 141.445 168.117C140.473 168.231 139.488 168.152 138.546 167.885C137.666 167.601 136.813 167.239 135.998 166.803C134.6 166.11 133.278 165.453 131.952 165.733C130.625 166.014 129.676 167.152 128.67 168.357C128.165 168.997 127.615 169.6 127.024 170.16C126.132 171 124.955 171.47 123.73 171.475Z" fill="#333333"/>
<path id="Vector_21" d="M10.1414 87.3058L0.92642 87.0654C0.835044 87.0633 0.744981 87.0432 0.661414 87.0062C0.577847 86.9692 0.502428 86.916 0.439496 86.8497C0.376564 86.7834 0.327343 86.7053 0.294705 86.62C0.262067 86.5346 0.246653 86.4436 0.249318 86.3522C0.248641 86.2599 0.266856 86.1683 0.302872 86.0833C0.338889 85.9982 0.391938 85.9214 0.458741 85.8576C0.525543 85.7938 0.604692 85.7444 0.691321 85.7123C0.77795 85.6802 0.870222 85.6662 0.962465 85.6711L10.1774 85.9115C10.3623 85.9115 10.5397 85.985 10.6704 86.1157C10.8011 86.2465 10.8746 86.4238 10.8746 86.6087C10.8746 86.7936 10.8011 86.9709 10.6704 87.1016C10.5397 87.2323 10.3623 87.3058 10.1774 87.3058H10.1414Z" fill="#333333"/>
<path id="Vector_22" d="M23.2593 87.3902H23.2392L16.8288 87.2019C16.7374 87.1993 16.6475 87.1787 16.5641 87.1412C16.4807 87.1037 16.4056 87.0501 16.343 86.9834C16.2805 86.9167 16.2317 86.8384 16.1995 86.7528C16.1674 86.6672 16.1525 86.5761 16.1557 86.4847C16.165 86.3012 16.2448 86.1284 16.3784 86.0022C16.512 85.8761 16.6891 85.8064 16.8729 85.8076L23.2833 85.996C23.4682 85.996 23.6455 86.0694 23.7762 86.2001C23.907 86.3309 23.9804 86.5082 23.9804 86.6931C23.9804 86.878 23.907 87.0553 23.7762 87.186C23.6455 87.3168 23.4682 87.3902 23.2833 87.3902H23.2593Z" fill="#333333"/>
<path id="Vector_23" d="M13.5591 83.2675C13.3752 83.2665 13.1991 83.1932 13.0687 83.0636C12.9383 82.9339 12.864 82.7582 12.8619 82.5744L12.7979 74.2649C12.7978 74.0803 12.8706 73.9032 13.0004 73.7719C13.1301 73.6406 13.3064 73.5658 13.491 73.5637C13.5823 73.5632 13.6729 73.5807 13.7574 73.6153C13.842 73.6499 13.9189 73.7009 13.9837 73.7653C14.0485 73.8297 14.0999 73.9063 14.135 73.9907C14.17 74.075 14.1881 74.1655 14.1881 74.2569L14.2522 82.5824C14.2533 82.6739 14.2363 82.7648 14.2022 82.8498C14.1681 82.9348 14.1177 83.0122 14.0537 83.0777C13.9897 83.1432 13.9134 83.1954 13.8293 83.2314C13.7451 83.2674 13.6546 83.2865 13.5631 83.2875L13.5591 83.2675Z" fill="#333333"/>
<path id="Vector_24" d="M13.6098 100.764C13.427 100.764 13.2515 100.692 13.1211 100.564C12.9907 100.436 12.9158 100.262 12.9127 100.079L12.7764 90.4631C12.7738 90.2782 12.8447 90.0998 12.9736 89.9672C13.1024 89.8346 13.2787 89.7586 13.4636 89.7559C13.6485 89.7533 13.8268 89.8242 13.9594 89.9531C14.0921 90.0819 14.1681 90.2582 14.1707 90.4431L14.3069 100.059C14.308 100.15 14.291 100.241 14.2569 100.326C14.2229 100.411 14.1724 100.488 14.1084 100.554C14.0444 100.619 13.9682 100.672 13.884 100.708C13.7998 100.744 13.7094 100.763 13.6178 100.764H13.6098Z" fill="#333333"/>
<path id="Vector_25" d="M121.386 9.52346C121.202 9.52241 121.025 9.44864 120.894 9.31813C120.764 9.18762 120.69 9.0109 120.689 8.82633L120.669 0.70114C120.668 0.609254 120.686 0.518169 120.721 0.433126C120.756 0.348083 120.807 0.270743 120.872 0.205583C120.937 0.140423 121.014 0.0887161 121.098 0.0534316C121.183 0.0181471 121.274 -1.51741e-06 121.366 0C121.551 0 121.728 0.0734515 121.859 0.204189C121.99 0.334927 122.063 0.512238 122.063 0.697129L122.087 8.82232C122.088 8.91421 122.07 9.00529 122.035 9.09034C122.001 9.17538 121.949 9.25272 121.885 9.31788C121.82 9.38304 121.743 9.43475 121.658 9.47003C121.573 9.50532 121.482 9.52347 121.39 9.52346H121.386Z" fill="#333333"/>
<path id="Vector_26" d="M116.566 13.1212C114.787 13.1221 113.009 13.0164 111.242 12.8047C111.151 12.7939 111.063 12.7653 110.983 12.7205C110.903 12.6757 110.832 12.6156 110.776 12.5436C110.661 12.3982 110.609 12.2132 110.631 12.0294C110.653 11.8456 110.747 11.6779 110.892 11.5634C111.037 11.4488 111.222 11.3966 111.406 11.4184C113.779 11.7026 116.171 11.791 118.558 11.6828C118.743 11.6743 118.923 11.7396 119.06 11.8644C119.197 11.9891 119.278 12.163 119.287 12.3479C119.295 12.5328 119.23 12.7135 119.105 12.8503C118.981 12.987 118.807 13.0686 118.622 13.0771C117.941 13.1052 117.256 13.1212 116.566 13.1212Z" fill="#333333"/>
<path id="Vector_27" d="M124.896 13.0296C124.722 13.0256 124.555 12.9563 124.429 12.8355C124.303 12.7146 124.227 12.551 124.216 12.3769C124.205 12.2028 124.26 12.0308 124.369 11.895C124.479 11.7592 124.635 11.6694 124.808 11.6434C126.993 11.3625 129.196 11.2434 131.398 11.2868C131.49 11.2889 131.58 11.309 131.664 11.3459C131.748 11.3829 131.824 11.436 131.887 11.5022C131.95 11.5685 132 11.6465 132.033 11.7319C132.066 11.8173 132.082 11.9084 132.08 11.9999C132.072 12.1831 131.994 12.3564 131.862 12.4833C131.73 12.6103 131.554 12.6812 131.37 12.681C129.237 12.6375 127.104 12.7527 124.988 13.0256L124.896 13.0296Z" fill="#333333"/>
<path id="Vector_28" d="M121.425 24.7364C121.334 24.737 121.243 24.7194 121.159 24.6849C121.074 24.6503 120.997 24.5993 120.933 24.5349C120.868 24.4704 120.816 24.3938 120.781 24.3095C120.746 24.2251 120.728 24.1347 120.728 24.0433L120.7 15.7018C120.7 15.6104 120.717 15.5198 120.752 15.4353C120.786 15.3507 120.837 15.2738 120.902 15.209C120.966 15.1443 121.043 15.0929 121.127 15.0578C121.211 15.0227 121.302 15.0046 121.393 15.0046C121.577 15.0057 121.753 15.0789 121.884 15.2086C122.014 15.3382 122.088 15.5139 122.09 15.6978L122.118 24.0393C122.119 24.1307 122.101 24.2212 122.067 24.3058C122.032 24.3904 121.981 24.4672 121.917 24.532C121.853 24.5968 121.776 24.6482 121.692 24.6833C121.607 24.7184 121.517 24.7365 121.425 24.7364Z" fill="#333333"/>
<path id="Vector_29" d="M74.285 88.2354C74.1001 88.2354 73.9228 88.1619 73.7921 88.0312C73.6613 87.9005 73.5879 87.7231 73.5879 87.5383V81.224C73.5879 81.0391 73.6613 80.8618 73.7921 80.731C73.9228 80.6003 74.1001 80.5269 74.285 80.5269C74.4699 80.5269 74.6472 80.6003 74.778 80.731C74.9087 80.8618 74.9821 81.0391 74.9821 81.224V87.5383C74.9821 87.7231 74.9087 87.9005 74.778 88.0312C74.6472 88.1619 74.4699 88.2354 74.285 88.2354Z" fill="#333333"/>
<path id="Vector_30" d="M151.255 153.261C151.163 153.261 151.072 153.243 150.987 153.208C150.903 153.172 150.826 153.121 150.762 153.055C150.697 152.99 150.646 152.913 150.612 152.828C150.578 152.743 150.56 152.652 150.561 152.56C150.646 143.99 150.73 135.132 149.532 126.518C148.194 116.902 145.353 108.757 141.086 102.274C141.036 102.198 141.001 102.112 140.984 102.022C140.967 101.932 140.968 101.84 140.986 101.75C141.005 101.66 141.041 101.575 141.092 101.499C141.144 101.424 141.21 101.359 141.286 101.309C141.363 101.258 141.449 101.224 141.539 101.207C141.629 101.19 141.721 101.19 141.811 101.209C141.9 101.227 141.985 101.264 142.061 101.315C142.137 101.367 142.202 101.432 142.252 101.509C146.631 108.164 149.544 116.513 150.91 126.325C152.112 135.04 152.04 143.954 151.956 152.572C151.955 152.663 151.937 152.754 151.901 152.838C151.865 152.922 151.814 152.998 151.748 153.062C151.683 153.126 151.606 153.177 151.521 153.211C151.437 153.245 151.346 153.262 151.255 153.261Z" fill="white"/>
<path id="Vector_31" d="M142.427 156.835H142.395C142.304 156.831 142.214 156.809 142.131 156.77C142.048 156.731 141.973 156.676 141.912 156.608C141.85 156.541 141.802 156.461 141.771 156.375C141.74 156.289 141.726 156.197 141.73 156.106C142.563 137.859 138.747 119.7 130.64 103.332C130.558 103.166 130.545 102.975 130.604 102.799C130.663 102.624 130.789 102.479 130.955 102.397C131.121 102.314 131.312 102.301 131.488 102.36C131.663 102.419 131.808 102.545 131.89 102.711C140.097 119.293 143.957 137.688 143.109 156.17C143.1 156.347 143.026 156.513 142.899 156.637C142.773 156.76 142.604 156.831 142.427 156.835Z" fill="white"/>
<path id="Vector_32" d="M129.386 131.678C129.212 131.676 129.045 131.61 128.917 131.493C128.789 131.375 128.709 131.214 128.693 131.041C127.796 121.272 124.654 111.843 119.514 103.488C119.466 103.409 119.434 103.321 119.42 103.23C119.405 103.139 119.409 103.045 119.431 102.955C119.453 102.866 119.492 102.781 119.546 102.706C119.601 102.632 119.67 102.568 119.749 102.52C119.827 102.472 119.915 102.44 120.006 102.426C120.098 102.411 120.191 102.415 120.281 102.437C120.371 102.459 120.455 102.498 120.53 102.552C120.605 102.607 120.668 102.676 120.716 102.755C125.971 111.294 129.182 120.932 130.099 130.916C130.108 131.008 130.098 131.1 130.07 131.187C130.043 131.275 129.999 131.356 129.94 131.426C129.881 131.497 129.809 131.555 129.728 131.597C129.646 131.64 129.558 131.666 129.466 131.674L129.386 131.678Z" fill="white"/>
<path id="Vector_33" d="M131.331 156.999C131.239 156.998 131.148 156.978 131.064 156.941C130.98 156.905 130.904 156.852 130.84 156.785C130.776 156.719 130.726 156.641 130.693 156.555C130.66 156.469 130.644 156.378 130.646 156.286C130.765 150.887 130.454 145.486 129.716 140.136C129.704 140.045 129.71 139.953 129.733 139.864C129.756 139.776 129.797 139.693 129.852 139.62C129.908 139.547 129.977 139.485 130.056 139.439C130.135 139.393 130.223 139.363 130.313 139.351C130.404 139.338 130.496 139.344 130.585 139.367C130.674 139.391 130.757 139.431 130.83 139.486C130.902 139.542 130.964 139.611 131.01 139.69C131.056 139.769 131.086 139.857 131.099 139.948C131.844 145.371 132.16 150.845 132.044 156.318C132.039 156.503 131.961 156.678 131.827 156.805C131.694 156.933 131.516 157.003 131.331 156.999Z" fill="white"/>
<path id="Vector_34" d="M118.613 158.718H118.545C118.454 158.709 118.365 158.682 118.284 158.639C118.203 158.595 118.132 158.536 118.074 158.465C118.016 158.394 117.972 158.312 117.946 158.224C117.92 158.137 117.911 158.044 117.92 157.953C119.749 139.553 116.805 120.992 109.37 104.061C109.296 103.892 109.292 103.7 109.359 103.527C109.426 103.355 109.559 103.216 109.729 103.142C109.898 103.067 110.091 103.063 110.263 103.131C110.435 103.198 110.574 103.331 110.648 103.5C118.18 120.651 121.162 139.454 119.307 158.093C119.289 158.265 119.208 158.423 119.08 158.539C118.952 158.654 118.786 158.718 118.613 158.718Z" fill="white"/>
<path id="Vector_35" d="M107.524 136.822C107.351 136.823 107.184 136.759 107.055 136.643C106.927 136.526 106.847 136.366 106.831 136.193C106.272 130.483 105.006 124.864 103.061 119.466C102.998 119.292 103.007 119.1 103.086 118.932C103.165 118.765 103.307 118.635 103.481 118.573C103.656 118.51 103.848 118.519 104.015 118.598C104.183 118.677 104.312 118.819 104.375 118.993C106.358 124.5 107.649 130.232 108.217 136.057C108.235 136.241 108.179 136.424 108.062 136.567C107.945 136.71 107.776 136.8 107.592 136.818L107.524 136.822Z" fill="white"/>
<path id="Vector_36" d="M108.281 155.777C108.095 155.776 107.918 155.702 107.787 155.57C107.657 155.439 107.583 155.261 107.583 155.076C107.583 151.59 107.447 148.061 107.135 144.587C107.118 144.403 107.175 144.22 107.293 144.078C107.411 143.936 107.58 143.847 107.764 143.83C107.855 143.82 107.948 143.829 108.036 143.856C108.124 143.883 108.205 143.928 108.276 143.987C108.346 144.046 108.404 144.118 108.447 144.2C108.489 144.282 108.514 144.371 108.521 144.463C108.837 147.98 108.994 151.55 108.978 155.084C108.977 155.268 108.903 155.445 108.772 155.574C108.641 155.704 108.465 155.777 108.281 155.777Z" fill="white"/>
<path id="Vector_37" d="M94.7154 160.433H94.6513C94.56 160.424 94.4712 160.398 94.3901 160.355C94.309 160.312 94.2372 160.253 94.1788 160.183C94.1203 160.112 94.0764 160.03 94.0496 159.943C94.0227 159.855 94.0134 159.763 94.0223 159.672C95.5288 142.978 93.5212 126.154 88.1287 110.283C88.0937 110.195 88.0769 110.101 88.0793 110.007C88.0818 109.912 88.1035 109.819 88.143 109.733C88.1826 109.648 88.2392 109.571 88.3094 109.507C88.3797 109.444 88.462 109.396 88.5516 109.365C88.6411 109.335 88.7359 109.323 88.8301 109.33C88.9244 109.337 89.0162 109.364 89.1 109.408C89.1837 109.452 89.2577 109.512 89.3173 109.585C89.3769 109.659 89.421 109.744 89.4468 109.835C94.9039 125.89 96.9348 142.911 95.4085 159.8C95.3926 159.973 95.3127 160.133 95.1845 160.25C95.0563 160.367 94.889 160.433 94.7154 160.433Z" fill="white"/>
<path id="Vector_38" d="M80.8884 134.559C80.7122 134.558 80.5428 134.491 80.4142 134.371C80.2856 134.25 80.2074 134.086 80.1952 133.91C79.6223 125.897 78.7769 117.76 77.6831 109.775C77.6708 109.684 77.6764 109.592 77.6997 109.503C77.723 109.415 77.7636 109.331 77.819 109.259C77.8744 109.186 77.9437 109.124 78.0228 109.078C78.1019 109.032 78.1894 109.002 78.2801 108.99C78.3709 108.977 78.4632 108.983 78.5518 109.006C78.6403 109.029 78.7235 109.07 78.7964 109.125C78.8693 109.181 78.9306 109.25 78.9767 109.329C79.0229 109.408 79.053 109.496 79.0654 109.587C80.1632 117.6 81.0126 125.753 81.5855 133.814C81.5987 133.998 81.5382 134.18 81.4172 134.32C81.2963 134.46 81.1248 134.546 80.9404 134.559H80.8884Z" fill="white"/>
<path id="Vector_39" d="M81.8816 157.4C81.7048 157.399 81.5348 157.332 81.4061 157.21C81.2774 157.089 81.1996 156.923 81.1884 156.747L80.323 143.658C80.3134 143.564 80.3226 143.47 80.3502 143.381C80.3778 143.291 80.4232 143.208 80.4836 143.136C80.544 143.065 80.6183 143.006 80.7019 142.964C80.7855 142.921 80.8768 142.896 80.9704 142.89C81.0639 142.884 81.1577 142.897 81.2462 142.928C81.3347 142.958 81.416 143.007 81.4854 143.07C81.5547 143.133 81.6106 143.209 81.6498 143.294C81.689 143.38 81.7106 143.472 81.7133 143.565L82.5787 156.655C82.5908 156.839 82.5292 157.021 82.4075 157.16C82.2858 157.299 82.114 157.384 81.9297 157.396L81.8816 157.4Z" fill="white"/>
<path id="Vector_40" d="M70.183 161.306C70.0081 161.305 69.8398 161.239 69.7114 161.121C69.583 161.002 69.5039 160.839 69.4899 160.665C68.1276 144.374 67.4866 127.811 67.5547 111.473C67.5547 111.382 67.5728 111.291 67.6078 111.207C67.6429 111.122 67.6944 111.046 67.7591 110.981C67.8239 110.917 67.9008 110.866 67.9854 110.831C68.0699 110.797 68.1605 110.779 68.2518 110.78C68.3432 110.78 68.4337 110.798 68.518 110.833C68.6024 110.868 68.679 110.919 68.7434 110.984C68.8078 111.049 68.8588 111.126 68.8934 111.21C68.928 111.295 68.9455 111.386 68.945 111.477C68.8688 127.787 69.5179 144.298 70.8761 160.549C70.8838 160.64 70.8734 160.732 70.8455 160.819C70.8177 160.906 70.7729 160.987 70.7137 161.057C70.6546 161.127 70.5822 161.185 70.5007 161.227C70.4193 161.269 70.3304 161.294 70.2391 161.302L70.183 161.306Z" fill="white"/>
<path id="Vector_41" d="M58.4474 141.242C58.2724 141.242 58.1036 141.177 57.9745 141.059C57.8453 140.941 57.7653 140.779 57.7502 140.604C56.9181 130.792 57.2922 120.914 58.864 111.193C58.9026 111.019 59.0059 110.867 59.1529 110.767C59.2999 110.667 59.4795 110.627 59.6549 110.656C59.8304 110.684 59.9885 110.778 60.0969 110.919C60.2053 111.059 60.2559 111.236 60.2383 111.413C58.6878 121.024 58.3191 130.788 59.1405 140.488C59.1482 140.58 59.1378 140.671 59.1099 140.759C59.082 140.846 59.0372 140.927 58.9781 140.997C58.9189 141.067 58.8465 141.124 58.7651 141.166C58.6837 141.208 58.5947 141.234 58.5034 141.242H58.4474Z" fill="white"/>
<path id="Vector_42" d="M58.7567 159.099C58.6653 159.099 58.5748 159.082 58.4902 159.047C58.4057 159.013 58.3288 158.962 58.264 158.897C58.1992 158.833 58.1478 158.756 58.1127 158.672C58.0776 158.587 58.0596 158.497 58.0596 158.406V148.882C58.0596 148.697 58.133 148.52 58.2638 148.389C58.3945 148.259 58.5718 148.185 58.7567 148.185C58.9416 148.185 59.1189 148.259 59.2497 148.389C59.3804 148.52 59.4538 148.697 59.4538 148.882V158.402C59.4544 158.493 59.4368 158.584 59.4022 158.668C59.3676 158.753 59.3167 158.83 59.2523 158.894C59.1878 158.959 59.1112 159.011 59.0269 159.046C58.9425 159.081 58.8521 159.099 58.7607 159.099H58.7567Z" fill="white"/>
<path id="Vector_43" d="M63.1423 67.3857C62.78 67.2671 62.3896 67.2643 62.0256 67.3778C61.6615 67.4912 61.3419 67.7152 61.111 68.0187C60.9038 68.3344 60.8245 68.7172 60.8892 69.0893C60.9539 69.4614 61.1579 69.7948 61.4596 70.022C61.6687 70.1448 61.9016 70.2216 62.1427 70.2472C62.3839 70.2727 62.6277 70.2465 62.8579 70.1703C63.1723 70.092 63.4594 69.9294 63.6882 69.6999C63.917 69.4704 64.0787 69.1828 64.156 68.8681C64.1795 68.5428 64.0921 68.2191 63.908 67.9499C63.7239 67.6807 63.454 67.4818 63.1423 67.3857Z" fill="#333333"/>
<path id="Vector_44" d="M84.4542 67.3857C84.0918 67.2671 83.7015 67.2643 83.3375 67.3778C82.9734 67.4912 82.6538 67.7152 82.4229 68.0187C82.2152 68.334 82.1353 68.7164 82.1993 69.0885C82.2632 69.4605 82.4664 69.7943 82.7675 70.022C82.9773 70.1447 83.2109 70.2214 83.4527 70.2469C83.6944 70.2725 83.9389 70.2464 84.1697 70.1703C84.4834 70.0914 84.7697 69.9285 84.9977 69.699C85.2258 69.4696 85.3869 69.1823 85.4639 68.8681C85.4891 68.5431 85.4029 68.2191 85.2193 67.9497C85.0358 67.6802 84.7659 67.4813 84.4542 67.3857Z" fill="#333333"/>
<path id="Vector_45" d="M73.7609 82.1456L70.6358 80.3427C69.7653 79.9175 68.9899 79.3206 68.3561 78.5878C67.7792 77.8146 67.5548 76.6927 68.0637 75.8794C68.5725 75.0661 69.6302 74.8057 70.5757 74.6214C72.6351 74.2207 74.7465 73.8521 76.8179 74.1726C77.6713 74.3049 78.5928 74.6134 79.0255 75.3746C79.1839 75.688 79.2692 76.0334 79.2747 76.3845C79.2803 76.7357 79.206 77.0836 79.0575 77.4019C78.7521 78.0358 78.3462 78.6162 77.8556 79.1207C77.1504 79.922 76.4306 80.7126 75.6961 81.4925C75.2954 81.9092 74.6103 82.6344 73.7609 82.1456Z" fill="#333333"/>
<path id="Vector_46" d="M60.7668 98.3356C60.5675 98.2534 60.3525 98.2158 60.1371 98.2257C59.9217 98.2355 59.711 98.2925 59.52 98.3926C59.329 98.4927 59.1622 98.6334 59.0315 98.805C58.9008 98.9765 58.8094 99.1746 58.7636 99.3853C58.4827 100.686 58.339 102.013 58.3349 103.344C58.2989 103.54 58.3029 103.741 58.3465 103.935C58.3902 104.13 58.4728 104.313 58.5891 104.475C58.7055 104.636 58.8533 104.773 59.0238 104.876C59.1942 104.979 59.3837 105.047 59.5809 105.075C65.3863 107.134 71.8248 106.525 77.8666 106.361C80.5994 106.29 83.2886 105.658 85.7675 104.506C86.375 104.27 86.9166 103.89 87.346 103.4C88.1233 102.362 87.8268 100.908 87.4943 99.6538C87.2779 98.8525 86.9174 97.8829 86.088 97.7307C85.6015 97.7003 85.1174 97.8207 84.7017 98.0752C77.3658 101.553 68.5315 101.661 60.7668 98.3356Z" fill="#333333"/>
<path id="Vector_47" d="M44.8541 46.856C43.7203 45.7542 42.7026 44.4521 42.338 42.9136C42.2604 42.6903 42.2348 42.4521 42.2632 42.2174C42.2917 41.9827 42.3735 41.7576 42.5023 41.5594C42.65 41.4158 42.8286 41.308 43.0245 41.2441C43.2203 41.1802 43.4282 41.1619 43.6321 41.1908C44.8661 41.2669 45.8878 42.1283 46.8133 42.9456C46.9694 43.0587 47.0779 43.2258 47.1178 43.4144C47.1378 43.6668 46.9175 43.8631 46.7172 44.0314C45.8932 44.8221 45.2566 45.7872 44.8541 46.856Z" fill="#333333"/>
<path id="Vector_48" d="M93.4688 38.4706C94.1979 38.0338 94.7789 37.3768 95.5081 36.9401C96.2373 36.5034 97.2429 36.3191 97.912 36.86C98.1246 37.0554 98.2875 37.2988 98.3871 37.5698C98.4868 37.8409 98.5203 38.1319 98.4849 38.4185C98.4117 38.9901 98.2294 39.5423 97.948 40.0451C97.6031 40.7382 97.2122 41.4074 96.7781 42.0484C95.9266 41.4431 95.1375 40.7546 94.4223 39.993C93.9776 39.577 93.649 39.0523 93.4688 38.4706Z" fill="#333333"/>
</g>
</svg>
